<?xml version="1.0" encoding="UTF-8"?><svg xmlns="http://www.w3.org/2000/svg" viewBox="0 0 254.46 75"><defs><style>.d{fill:#fff;}</style></defs><g id="a"/><g id="b"><g id="c"><g><path class="d" d="M66.05,37.64c0-.9-.04-1.8-.13-2.69,0-.09-.09-.16-.18-.15l-.25,.02c-.09,0-.15,.09-.15,.18,.08,.87,.12,1.76,.12,2.64,0,15.46-12.58,28.04-28.04,28.04s-28.04-12.58-28.04-28.04c0-7.28,2.77-14.17,7.81-19.42,4.98-5.19,11.67-8.24,18.84-8.59,.09,0,.16-.08,.15-.17v-.25c-.01-.09-.09-.16-.18-.16-7.31,.36-14.14,3.47-19.22,8.76-5.14,5.35-7.97,12.39-7.97,19.82,0,15.78,12.84,28.62,28.62,28.62s28.62-12.84,28.62-28.62Z"/><path class="d" d="M37.5,0C27.48,0,18.07,3.9,10.98,10.98,3.9,18.07,0,27.48,0,37.5c0,7.72,2.32,15.12,6.72,21.42,.05,.08,.16,.09,.23,.04l.2-.14c.07-.05,.09-.15,.04-.23C2.82,52.32,.53,44.95,.58,37.27c.06-9.86,4.09-19.32,11.14-26.2C18.66,4.29,27.81,.57,37.53,.58c9.79,0,19.16,3.89,26.08,10.81,7,7,10.85,16.33,10.81,26.24-.03,9.76-3.91,19.08-10.81,25.98-6.97,6.97-16.25,10.81-26.11,10.81-1.09,0-2.19-.05-3.28-.14-.09,0-.17,.06-.18,.15l-.02,.25c0,.09,.06,.17,.15,.18,1.1,.1,2.22,.15,3.33,.15,10.02,0,19.43-3.9,26.52-10.98,7.08-7.08,10.98-16.5,10.98-26.52s-3.9-19.43-10.98-26.52C56.93,3.9,47.52,0,37.5,0Z"/><path class="d" d="M37.04,14.22s-.07,.02-.11,.03c-.05,.01-.1,.03-.14,.04-.33,.11-.62,.33-.8,.61-.04,.04-.06,.07-.07,.11-.04,.07-.11,.12-.19,.12-.05,0-.09,.02-.13,.02-.04,0-.08,.02-.13,.02-.34,.05-.7,.14-1.12,.26-1.64,.46-3.16,1.32-4.39,2.5-.87,.83-1.59,1.8-2.14,2.9-.02,.03-.03,.07-.05,.1-.01,.03-.03,.07-.04,.09-.04,.06-.03,.14,.02,.19,.04,.05,.08,.09,.11,.13l.1,.13c.14,.17,.32,.39,.47,.64,.14,.21,.27,.45,.41,.74,.37,.76,.64,1.47,.84,2.15,.1,.31,.18,.63,.26,.94,.04,.14,.07,.28,.11,.42,.05,.18,.09,.36,.14,.54,.05,.18,.09,.36,.14,.55,.02,.05,.05,.09,.13,.1l.94-.11c.2-.03,.38-.05,.58-.06l.47-.05c.2-.02,.41-.03,.63-.05l.72-.05c.31-.02,.61-.03,.89-.05h.04c.26-.02,.51-.03,.77-.03,.78-.02,1.6-.04,2.38-.02,.24,0,.48,0,.73,0,.33,0,.66,.01,.98,.03,.16,0,.33,.01,.49,.02,.07,0,.13,0,.2,0,.07,0,.13,0,.2,0l.77,.05,.81,.06c.14,.02,.28,.03,.43,.05l.9,.09,.83,.11h.05s.06-.03,.08-.05c.03-.03,.03-.06,.03-.08,.04-.14,.08-.28,.11-.42,.04-.14,.08-.28,.12-.43l.02-.06c.03-.11,.05-.22,.09-.32,0-.04,.02-.07,.03-.1,.01-.04,.02-.07,.03-.11,.15-.56,.31-1.13,.5-1.68,.19-.55,.4-1.07,.66-1.57,.28-.55,.6-1.03,.97-1.46l.03-.03c.1-.08,.1-.21,.05-.3v-.02c-1.43-2.95-4.21-5.08-7.45-5.7-.17-.03-.35-.06-.53-.09h-.01c-.06,0-.11-.04-.13-.09v-.02h-.02s0-.03-.02-.04c-.2-.35-.54-.61-.96-.72-.04-.01-.08-.03-.13-.04v-.02s-.02-.03-.02-.03c-.02-.2-.02-.39,0-.58v-.04h.01l.02-.02s.03,0,.04,0h.25s.07,0,.1,0c.03,0,.06,0,.09,0,.06,0,.1-.05,.1-.09l.02-.08c.02-.11,0-.2-.01-.3h0c0-.07-.04-.1-.09-.11-.04-.02-.08-.02-.11-.02h-.27s-.09,0-.13,0l-.02-.02s0-.03,0-.04v-.61l-.02-.02s-.04-.05-.09-.05h-.38c-.06,0-.13,.01-.13,.12v.56h0s0,.04-.01,.06h-.01s-.03,.01-.04,.01h-.25c-.06,0-.14,0-.2,.02-.04,0-.1,.06-.1,.09-.03,.13-.03,.28,0,.42,.01,.02,.04,.08,.11,.08h.48s.02,0,.02,0v.64s-.01,.02-.02,.03Zm-.28,5.27c.13-.11,.28-.19,.46-.22,.05,0,.11-.01,.17-.01,.1,0,.22,.01,.32,.04,.14,.04,.27,.11,.38,.2,.24,.21,.42,.51,.47,.81,.03,.15,.05,.3,.05,.46v2.59s0,0-.02,0h-2.36s0,0,0-.02v-2.71c0-.17,.02-.31,.06-.43,.07-.26,.24-.52,.47-.72Zm-.13-2.1c.1,.04,.19,.07,.31,.11,.34,.09,.71,.07,1.06-.06l.13-.04c-.03,.16-.05,.3-.06,.45-.02,.21-.05,.43-.08,.65,0,.09-.01,.17-.03,.27l-.43-.09s-.1-.01-.15-.01-.11,0-.17,.01l-.35,.08s-.03,0-.05,0h-.01l-.08-.65c-.02-.22-.05-.44-.08-.66,0-.02,0-.04,0-.05Zm-.68-.47h.01s0,0,.01,.02v.06c.03,.1,.04,.21,.05,.32,.01,.1,.02,.19,.04,.3,.02,.11,.03,.22,.05,.33,.02,.11,.03,.22,.05,.33l.09,.76s0,.09-.03,.12h-.01s-.04,.06-.07,.09c-.28,.31-.46,.71-.5,1.13-.03,.2-.03,.39-.03,.59v2.41l-.4,.02s-.02-.01-.02-.07c0-.06,0-.1,0-.16l-.05-1.27c0-.34-.02-.68-.03-1.02-.02-.18-.03-.33-.08-.5-.08-.33-.26-.63-.5-.84-.12-.12-.28-.24-.44-.32-.28-.16-.61-.22-.93-.19-.44,.03-.84,.24-1.13,.59-.23,.26-.38,.56-.44,.87-.04,.21-.05,.4-.03,.56,.02,.2,.05,.41,.09,.6,.12,.66,.26,1.33,.4,1.98h0v.02l.02,.02h-.01s-.04,.03-.07,.03l-.28,.05h-.03s-.04-.1-.05-.16c-.18-.57-.42-1.16-.72-1.82l-.14-.28c-.15-.26-.39-.49-.67-.63l-.05-.03s-.03-.03-.04-.02c0,0,0,0,.02-.03,.58-.92,1.35-1.73,2.22-2.35,.89-.63,1.87-1.08,2.91-1.36,.24-.06,.52-.12,.82-.17Zm-1.33,6.39v.14s0,.02-.03,.02l-1.9,.15s0,0-.01-.02c0,0,0-.02-.01-.04,0-.02,0-.04-.02-.06l-.06-.28c-.12-.55-.23-1.08-.34-1.62-.02-.08-.03-.17-.05-.25-.02-.08-.03-.16-.05-.24-.07-.41,.07-.83,.39-1.14,.07-.08,.16-.14,.26-.2,.21-.13,.49-.16,.74-.09,.45,.12,.79,.46,.91,.93,.03,.1,.04,.22,.04,.32,.02,.4,.03,.81,.05,1.39,0,.22,.03,.61,.06,.98Zm1.19-6.97h0Zm-7.11,4.34c1.41-2.43,3.78-4.17,6.5-4.76,.12-.03,.26-.06,.4-.09,.03,0,.06-.01,.09-.01,.03,0,.05,0,.08-.01v.03c0,.15,.02,.3,.05,.43v.07s-.04,0-.06,.01c-.03,0-.06,0-.08,.02-.81,.14-1.6,.39-2.33,.74-1.16,.55-2.16,1.3-2.99,2.24-.27,.32-.53,.66-.8,1.07-.03,.06-.08,.14-.12,.19v.02s-.04,.02-.06,.02l-.18-.02h0c-.15,0-.32,0-.48,.07v-.02Zm1.49,3.42s-.02,0-.04,.01c-.02,0-.03,0-.05,.01h0s0-.02,0-.03c0-.02,0-.04-.02-.05-.15-.45-.35-.92-.62-1.48-.19-.39-.43-.8-.72-1.2l-.04-.08h0c.29-.08,.55-.09,.8-.02,.09,.03,.19,.07,.3,.12,.22,.1,.39,.28,.49,.49,.17,.36,.34,.73,.47,1.11,.05,.13,.09,.26,.14,.38,.05,.13,.09,.25,.14,.38,.01,.03,.02,.06,.03,.09-.03,.02-.05,.03-.08,.04l-.79,.2Zm14.42,.58l-.04,.13c-.06,.18-.12,.35-.17,.54-.03,.11-.06,.22-.1,.34-.03,.11-.07,.22-.1,.34l-.28,.87h0c-.02,.05-.08,.03-.13,.02l-1.36-.15c-.11,0-.22-.02-.33-.03-.11-.01-.22-.02-.33-.03l-1.53-.11-.14-.02c-.17,0-.35-.01-.52-.02-.34-.01-.7-.03-1.04-.03-.22,0-.44,0-.67,0-.22,0-.44,0-.67,0h0c-.28,0-.55,.01-.82,.02-.27,0-.54,0-.82,.02-.28,0-.56,.02-.83,.03l-.89,.05c-.26,.02-.51,.03-.75,.05l-1.11,.09-.57,.06-.52,.05s-.04,0-.04-.02c-.01-.04-.03-.1-.04-.16-.07-.25-.13-.51-.2-.77-.09-.35-.19-.7-.28-1.07-.03-.06-.04-.11-.06-.16,0,0,0,0,0-.02l.11-.04c.32-.09,.62-.17,.93-.23,.24-.05,.49-.09,.73-.12,.13-.02,.26-.04,.39-.06,.11-.02,.22-.03,.33-.04,.11-.01,.22-.02,.33-.04,.27-.03,.56-.06,.86-.09,.09,0,.17-.01,.26-.02,.08,0,.17,0,.26-.02,.09,0,.19-.01,.28-.02,.1,0,.19,0,.28-.02,.67-.03,1.35-.05,2.04-.05,.42,0,.83,.01,1.24,.03,.21,0,.42,.01,.63,.02,.22,0,.44,.01,.66,.03,.11,0,.21,.01,.32,.02l1.75,.12c.26,.02,.51,.05,.75,.08,.35,.05,.7,.09,1.05,.15h.03c.31,.07,.62,.12,.92,.18,.04,0,.07,.02,.1,.03,.03,.01,.06,.02,.1,.03,0,.02-.01,.04-.01,.05Zm-2.45-1.09h-.11c-.09,.01-.16,.01-.26,0l-1.51-.13h-.04v-.06c0-.24,0-.47,.02-.7,0-.09,.01-.17,.02-.26,0-.08,0-.17,.02-.25h0c.02-.39,.02-.77,.02-1.14,0-.11,.01-.2,.03-.31v-.04c.02-.12,.06-.24,.12-.35,.12-.21,.3-.4,.5-.53,.44-.28,1.03-.2,1.37,.17,.17,.21,.28,.43,.33,.66,.03,.18,.03,.34,0,.5-.03,.14-.06,.28-.08,.42-.03,.14-.05,.27-.08,.41-.04,.21-.08,.41-.12,.62-.04,.21-.08,.41-.12,.62l-.08,.33v.02Zm4-2.27s-.02,.03-.04,.05c-.23,.32-.45,.68-.65,1.08-.23,.45-.45,.95-.65,1.5,0,.03-.02,.05-.03,.08-.01,.02-.02,.05-.03,.07h-.04l-.88-.22h-.05s0-.04,.01-.05c0,0,0-.02,.01-.04,.18-.53,.41-1.11,.7-1.78,.02-.05,.05-.1,.07-.15,.01-.02,.02-.04,.03-.06,.1-.19,.25-.34,.44-.42,.26-.14,.53-.19,.79-.16h.02c.09,.02,.19,.03,.28,.06h0v.03Zm-7.1-5.03s0-.04,0-.05c.01-.07,.03-.17,.03-.27,0-.03,0-.06,0-.09,0-.04,0-.07,0-.11,0,0,0,0,.02,0,.15,.03,.32,.06,.5,.09,1.13,.24,2.25,.7,3.25,1.33,1.33,.84,2.45,1.99,3.23,3.33,.01,.04,.04,.08,.06,.11,0,.01,.02,.03,.02,.04v.02s0,0,0,0c-.15-.04-.31-.05-.47-.05-.05,0-.1,0-.15,0h-.08s-.05,0-.06-.02h0l-.02-.03c-1.28-2.06-3.38-3.56-5.73-4.12-.09-.02-.19-.04-.29-.06-.1-.02-.19-.04-.28-.06h-.05s0-.03,0-.04Zm-.54,2.72s0-.06,0-.09c.03-.26,.06-.51,.09-.75l.09-.64c0-.06,.02-.13,.02-.19l.02-.18s.01-.07,.02-.11c0-.03,0-.06,.02-.1,.06,0,.14,0,.24,.03,.28,.05,.56,.11,.81,.18,1.28,.37,2.43,1,3.43,1.89,.53,.49,.96,.98,1.31,1.5,.04,.06,.09,.12,.12,.18l.04,.06s.04,.06,.04,.06c0,0-.04,.03-.07,.05l-.04,.02c-.31,.18-.56,.45-.7,.76-.09,.18-.17,.35-.25,.54-.2,.45-.37,.92-.54,1.37-.01,.05-.04,.13-.07,.19h0l-.38-.06h0s.02-.08,.03-.13c.01-.06,.03-.12,.04-.18,.12-.56,.25-1.13,.35-1.7l.09-.51c.08-.47-.02-.94-.28-1.33-.11-.17-.22-.3-.33-.39-.23-.22-.55-.36-.89-.41-.34-.05-.7,.03-1.01,.21-.46,.24-.8,.68-.95,1.2-.03,.12-.05,.21-.05,.32,0,.14-.01,.28-.02,.42,0,.14,0,.27-.02,.41l-.05,1.34c0,.07,0,.13,0,.2,0,.07,0,.11,0,.18,0,0,0,.09-.01,.11h-.04l-.35-.02s0,0,0-.02v-1.46c0-.41,0-.83-.05-1.26,0-.22-.03-.42-.09-.63-.1-.34-.27-.63-.49-.85l-.03-.03s-.03-.05-.03-.08c0-.03,0-.05,0-.08Zm-1.13-4.19c.16,0,.33,.03,.47,.09l.03,.02s.05,.02,.08,.04c.51,.31,.67,.97,.37,1.46-.12,.2-.28,.34-.48,.42-.15,.07-.31,.1-.48,.1-.09,0-.16,0-.25-.03-.24-.07-.45-.21-.61-.42-.09-.14-.14-.25-.16-.36-.02-.09-.03-.18-.03-.27,0-.58,.48-1.05,1.06-1.05Z"/><path class="d" d="M34.97,57.95s-.07-.02-.1-.02c-.03,0-.07-.02-.1-.02l-.33-.08h-.06s-.08,.04-.08,.08h0v.03c.06,.08,.11,.15,.19,.2,.12,.09,.23,.15,.35,.19,.25,.11,.51,.16,.78,.16,.09,0,.18,0,.27-.02,.25-.05,.48-.09,.7-.14,.05,0,.11-.02,.16-.03,.11-.02,.23-.05,.36-.06,.32-.03,.6-.02,.84,.03,.14,.03,.27,.06,.41,.08,.13,.03,.27,.05,.41,.08,.16,.03,.3,.05,.46,.05,.19,0,.36-.03,.53-.06,.19-.04,.37-.12,.55-.24,.09-.06,.15-.11,.19-.16,.02-.02,.02-.04,.03-.06l.02-.02v-.12h-.09c-.09,.01-.21,.04-.34,.08-.15,.03-.3,.06-.46,.08-.24,.03-.48,.01-.72-.04l-1.23-.31c-.16-.03-.34-.03-.51,0-.13,.02-.25,.05-.37,.08-.15,.04-.3,.08-.45,.11-.15,.04-.3,.08-.46,.12-.3,.07-.62,.08-.94,.02Z"/><path class="d" d="M29.14,55.94c.08,.08,.16,.16,.26,.21,.21,.13,.44,.22,.68,.27,.22,.04,.38,.05,.55,.03,.14-.01,.27-.04,.4-.06,.07-.01,.13-.02,.2-.03,.29-.06,.58-.12,.87-.17,.2-.03,.38-.04,.54-.03,.17,.02,.34,.05,.5,.08,.15,.03,.31,.06,.46,.09,.12,.02,.25,.05,.38,.07,.14,.04,.3,.06,.48,.06,.14,0,.29-.01,.44-.03h.05c.27-.05,.52-.15,.77-.32,.06-.05,.13-.1,.17-.16,.02-.02,.02-.04,.03-.06l.02-.02v-.08l-.02-.02s-.03-.03-.07-.03c-.05,0-.1,0-.15,.02-.2,.06-.4,.11-.61,.14-.24,.04-.48,.04-.71,0l-.13-.03c-.25-.05-.51-.11-.76-.17-.18-.05-.43-.12-.67-.17-.17-.05-.35-.05-.55-.02-.17,.03-.34,.06-.51,.11-.3,.08-.62,.15-.95,.23-.34,.09-.72,.09-1.06,0-.16-.05-.31-.08-.44-.11-.05-.02-.11-.02-.15-.02-.02,0-.07,0-.07,.08v.02s.04,.07,.06,.09Z"/><path class="d" d="M39.19,56.03s.01,.02,.02,.03c.06,.07,.14,.14,.23,.2,.11,.06,.22,.12,.34,.17,.22,.09,.45,.14,.71,.14,.07,0,.15,0,.22-.01,.05,0,.1-.02,.14-.02,.05,0,.1-.02,.15-.02,.15-.03,.3-.07,.45-.1,.15-.03,.3-.07,.45-.1,.34-.08,.71-.09,1.09-.03,.17,.04,.33,.07,.5,.1,.08,.01,.16,.03,.24,.04h.04c.17,.04,.33,.06,.51,.06s.33-.02,.5-.06c.21-.04,.44-.14,.68-.28,.09-.06,.17-.13,.26-.24h.01v-.02s.02-.02,.02-.04v-.02s-.04-.06-.08-.06c-.05,0-.1,0-.15,.02-.25,.08-.48,.12-.71,.17-.13,.01-.28,.01-.43,0-.21-.03-.43-.06-.62-.11l-.86-.18c-.32-.07-.63-.06-.91,.03-.15,.04-.29,.08-.43,.12-.14,.04-.28,.08-.43,.12-.17,.06-.36,.1-.56,.14-.19,.03-.39,.03-.58,0l-.52-.11c-.06-.02-.13-.03-.2-.03-.05,0-.08,.04-.08,.08v.03l.02,.02Z"/><path class="d" d="M30.36,41.49c.26,.37,.66,.58,1.1,.57,.31,0,.61-.11,.86-.29,.32-.23,.51-.6,.52-1,0-.2-.03-.4-.12-.57-.09-.21-.26-.4-.48-.51-.21-.11-.46-.14-.71-.11-.28,.03-.54,.2-.69,.44-.02,.04-.06,.06-.08,.09-.01,.01-.03,.02-.05,.02,0-.04,0-.06,0-.09,.02-.2,.05-.41,.09-.61,.11-.41,.31-.81,.58-1.13,.12-.15,.29-.29,.46-.4l.08-.06,.02-.02s.03-.08,0-.11c-.02-.02-.03-.02-.05-.02s-.05,0-.06,.02c-.44,.2-.83,.48-1.15,.84-.52,.61-.75,1.41-.63,2.21,.05,.26,.14,.51,.29,.72Zm.46-.83c.03-.17,.09-.34,.2-.48,.05-.08,.11-.14,.17-.18,.21-.15,.51-.14,.71,.03,.09,.08,.17,.18,.21,.31,.06,.15,.09,.29,.09,.44v.08c.02,.17-.03,.35-.08,.48-.05,.11-.11,.2-.2,.28-.11,.09-.23,.14-.37,.15-.15,.02-.29-.05-.4-.14-.06-.05-.11-.11-.15-.17-.11-.15-.18-.34-.2-.54,0-.08,0-.17,.02-.26Z"/><path class="d" d="M27.76,38.75s.05-.02,.06-.02l.38-.12,.09-.03s.05,.02,.05,.03c.02,.06,.02,.11,.02,.17v2.84c0,.09-.05,.18-.11,.26,0,.01-.01,.02-.02,.03,0,.03,.03,.05,.05,.05h.83s.04-.03,.03-.05c0-.02-.02-.03-.03-.05-.06-.06-.08-.14-.08-.21v-.05c0-.44-.02-.87-.02-1.32v-.55c.02-.4,.02-.78,.02-1.18v-.75s-.02-.05-.02-.08c0-.02-.03-.03-.05-.02-.05,.03-.08,.08-.12,.11-.12,.09-.23,.21-.35,.31-.15,.11-.31,.23-.46,.34-.09,.06-.17,.12-.26,.18l-.05,.05s.02,.06,.03,.06Z"/><path class="d" d="M44.87,39.96s.05,.02,.09-.02l.08-.08c.14-.14,.31-.23,.51-.28,.14-.03,.29-.03,.44,0,.29,.05,.52,.26,.61,.54,.03,.08,.05,.17,.05,.26,.02,.15,0,.31-.03,.46-.09,.48-.44,.86-.9,1-.2,.06-.41,.08-.61,.05l-.09-.02s-.03,.03-.03,.05c.02,.03,.02,.06,.03,.11l.05,.05s.05,.02,.06,.02c.26,.03,.51,.03,.75-.03,.54-.11,1-.46,1.26-.95,.2-.37,.25-.8,.11-1.2-.08-.25-.25-.46-.48-.58-.31-.18-.69-.23-1.04-.12-.18,.05-.35,.14-.51,.26-.05,.03-.08,.06-.11,.09l-.03,.03s-.07,.04-.06-.03c.01-.23,.05-.69,.06-.95,0-.03,0-.06,.02-.09,.02-.03,.05-.06,.08-.06h1.62s.06,0,.06-.09c.03-.17,.06-.32,.11-.48v-.02c.02-.06-.02-.08-.06-.08-.12,.03-.25,.03-.37,.03h-1.35c-.25,0-.23,0-.25,.23-.03,.2-.03,.38-.05,.58l-.06,1c0,.1-.02,.15-.02,.23,0,.05,.02,.08,.06,.09Z"/><path class="d" d="M41.76,38.49s.05,.03,.06,.02l.17-.14c.11-.08,.21-.14,.34-.18,.21-.08,.43-.09,.64-.03,.2,.05,.35,.23,.37,.43,.05,.23-.02,.46-.17,.63-.06,.08-.12,.14-.2,.18-.12,.09-.25,.15-.38,.21l-.18,.08s-.05,.05-.03,.08c.02,.02,.02,.05,.03,.06,.02,.03,.06,.05,.09,.03,.06-.03,.12-.05,.18-.06,.14-.03,.26-.03,.4,0,.25,.03,.46,.2,.55,.43,.03,.08,.05,.17,.06,.25,.02,.12,.02,.26,0,.38-.03,.32-.21,.61-.49,.78-.09,.06-.2,.11-.31,.14-.28,.08-.58,.09-.87,.05l-.18-.03s-.02,.02-.02,.03v.09s.02,.08,.06,.08l.23,.05c.29,.03,.6,0,.89-.08,.25-.08,.49-.18,.71-.32,.18-.14,.35-.29,.48-.49,.21-.32,.26-.74,.12-1.1-.06-.21-.21-.4-.41-.51-.09-.06-.21-.09-.32-.12-.08-.02-.17-.05-.25-.06l-.02-.02v-.02l.14-.09c.12-.08,.21-.18,.31-.29,.14-.18,.2-.41,.17-.64-.02-.17-.11-.32-.25-.41-.08-.05-.15-.09-.25-.12-.25-.08-.52-.09-.77-.02-.37,.09-.69,.32-.92,.63-.03,.05-.03,.08,.02,.12Z"/><path class="d" d="M26.13,28.48v23.88c0,3.54,2.89,6.21,4.83,7.13,2.61,1.23,3.68,1.7,5.46,2.48l.82,.36c.08,.03,.17,.03,.25,0l.61-.27c2.14-.94,2.8-1.23,5.65-2.57,1.41-.66,3.31-2.25,4.25-4.45,.36-.83,.58-1.75,.58-2.74V28.42c0-.09-.07-.15-.15-.15H26.28c-.09,0-.15,.07-.15,.21Zm21.87,16.1v2.18s-.04,.04-.04,.05c-.12,.08-.48,.34-.6,.41l-2.08,1.4-.09,.06s-.03,.02-.07-.03-.06-.11-.08-.17c-.06-.17-.09-.25-.19-.4-.27-.5-.61-.9-1.1-1.18-.1-.06-.15-.06,.03-.25l2.27-2.2h1.84c.06,0,.11,.05,.11,.11v.02Zm-6.96,8.51c-.05-.04-.11-.05-.17-.04-.07,0-.13,.03-.19,.05l-.47,.26-.84,.42c-.2,.1-.41,.13-.63,.15h-.22s-.03-.03-.03-.03c-.01-.05,.04-.07,.04-.07,.31-.18,.6-.37,.91-.54,.15-.1,.31-.19,.46-.3,.14-.09,.26-.2,.38-.3,.08-.07,.15-.14,.19-.23,.01-.03,.01-.07-.02-.1-.05-.06-.14-.07-.2-.03-.08,.06-.15,.1-.23,.14l-1.57,1.01c-.09,.06-.2,.12-.29,.17-.2,.1-.61,.18-.73,.1-.04-.03,.03-.07,.06-.09,.16-.08,.31-.16,.47-.24,.21-.14,.34-.24,.46-.32,.17-.11,.31-.24,.46-.37,.27-.24,.51-.5,.71-.78,.06-.07,.08-.12,.12-.19,.01-.03,.03-.1,0-.11-.05-.04-.12-.04-.18,0-.08,.06-.15,.11-.23,.17l-1.01,.89c-.06,.05-.12,.09-.18,.15-.15,.13-.37,.25-.54,.33l-.68,.34c-.29,.13-.42,.18-.5,.2s-.22,.03-.32,.02c-.03,0-.07-.01-.1-.02,0,0-.02-.03,0-.05,.01-.03,.04-.05,.06-.07l.37-.28c.34-.23,.66-.47,.98-.73,.64-.52,1.22-1.08,1.76-1.68,.12-.14,.11-.14,.23-.29,.13-.16,.33-.42,.33-.42,.13-.16-.03-.29-.16-.28-.03,0-.59,.17-.88,.28-.35,.15-.61,.4-1.01,.66-.11,.07-.41,.26-.53,.3-.42,.17-.72-.05-.52-.22,0,0,.51-.45,.7-.61,.29-.22,1.05-1.02,1.8-1.55,.24-.17,.33-.2,.59-.23,1.27-.16,2.32-.52,2.88-.89,.14-.09,.27-.18,.39-.29,.06-.05,.12-.11,.18-.16,.03-.04,.09-.04,.15-.01,.05,.01,.1,.04,.14,.05,.36,.18,.66,.42,.9,.76,.17,.23,.31,.49,.4,.76,.02,.03,.04,.08,.04,.11q.05,.17-.09,.27c-.55,.41-1.02,.93-1.39,1.52-.17,.28-.34,.57-.51,.85l-.71,1.16-.18,.29c-.17,.28-.38,.52-.68,.64-.2,.08-.32,.18-.53,.24-.13,.04-.27,.09-.41,.14-.06,.02-.35,.08-.39,0-.02-.04,.06-.07,.09-.09,.23-.12,.49-.3,.73-.4,.19-.09,.25-.14,.37-.24,.05-.07,.08-.14,.03-.19Zm-6.53-.03l-.93-5.37,7.15-1.25s.06,.02,.07,.06l.28,1.3c-.1,.03-.2,.05-.28,.06-.29,.05-1.23,.2-1.38,.23-.29,.07-.4,.16-.51,.22-.36,.22-1.05,.87-1.39,1.13-.11,.09-.32,.33-.43,.42-.34,.31-.88,.81-.96,.9-.18,.25-.06,.5,.14,.71s.57,.17,.62,.17c.15-.01,.27-.04,.42-.1,.2-.08,1.08-.68,1.31-.83l.12-.08c.05-.04,.08,0,.03,.04-.04,.04-.08,.08-.08,.08l-.08,.08c-.27,.29-.55,.56-.84,.81-.45,.42-.94,.8-1.44,1.16-.16,.13-.33,.25-.49,.37l-1.38,.25c.04-.09,.07-.24,.04-.36Zm-.58,.34c-.06,.08-.14,.13-.23,.15h-.05c-.2,.04-.38-.09-.42-.29l-.85-4.95c.06,.04,.13,.06,.2,.06,.05,0,.1,0,.15,0,.16-.02,.32-.08,.42-.2l.86,4.97c.02,.09,0,.19-.06,.27Zm2.04-13.18c.24,.11,.59,.16,.89,0,.16-.07,.26-.19,.26-.37,0-.08-.03-.14-.11-.19l-.16-.07c-.05-.02-.09-.1-.08-.19,0-.04,.03-.12,.05-.17,.11-.27,.28-.51,.52-.69h0l.52,.61c.03,.07,.04,.14,.06,.22,.03,.1-.01,.18-.08,.21-.01,0-.02,0-.03,.01-.01,0-.1,.04-.11,.05-.1,.06-.13,.15-.09,.26,.03,.11,.1,.2,.21,.28,.31,.18,.66,.14,.93,0,.03-.02,.09-.05,.12-.09,.07-.07,.11-.14,.11-.24,0-.04,0-.07,0-.1,0-.02,0-.04,0-.06,0-.07,.03-.14,.06-.21,.04-.12,.11-.2,.23-.26,.14-.07,.29-.09,.47-.05,.01,0,.03,0,.04,0v.03c-.12,.04-.2,.13-.28,.25-.02,.03-.04,.05-.05,.08-.01,.03-.02,.05-.04,.08-.08,.17-.13,.36-.14,.56,0,.11-.02,.26-.02,.38h-.09c-.43-.03-.79-.05-1.18-.05-.23,0-.47-.01-.7-.01h-.04l-1.1,.04s-.5,.01-.56,.01c-.06,0-.07-.03-.07-.05,0-.07-.01-.15-.02-.21-.02-.14-.05-.28-.08-.43l-.02-.05c-.03-.08-.05-.17-.09-.24-.06-.15-.17-.28-.31-.36,.15-.02,.29,0,.42,.04,.17,.07,.34,.23,.35,.39,0,.14-.02,.13-.02,.23,0,.17,.19,.3,.25,.33Zm3.26,.95c0,.11-.01,.13-.11,.12s-.43-.04-.62-.05c-.83-.05-1.25-.05-1.8-.03-.64,.02-1.02,.08-1.02,.08h-.12s-.05-.07-.05-.13c0-.06,0-.12,0-.17,0-.03,.02-.04,.05-.04s.62-.03,.62-.03c.09,0,.18-.01,.27-.02,.19-.01,.25-.02,.63-.03,.57,0,1.13,0,1.42,.02,.29,.02,.64,.06,.64,.06,.06,0,.06,.03,.06,.03,0,0,0,.17,0,.2Zm-1.85,.5c2.7,0,3.55,.73,4.24,1.27,.13,.1,.24,.22,.37,.32,.06,.06,.12,.08,.24,.04,1.16-.4,2.59-.08,3.32,.58-2.97,0-13.2,0-16.34,0,.78-.67,2.21-.98,3.37-.58,.11,.03,.17,.02,.24-.04,.12-.1,.24-.21,.37-.32,.67-.53,1.49-1.27,4.19-1.27Zm1.28-12.1c0-.18,.03-.36,.09-.51,0-.02,.02-.04,.03-.06,0-.02,.01-.03,.02-.05h0c.02-.05,.04-.1,.05-.11h8.92c.13,0,.24,.11,.24,.24v14.69c0,.1-.03,.11-.17,.11h-1.56c-.9-1.03-2.52-1.55-4.01-1.12-.05,.01-.1,0-.13-.03-.06-.05-.12-.11-.18-.16-.56-.43-1.14-.89-2.29-1.18,0-.04,0-.08,0-.09v-.88c0-.18,.03-.38,.09-.56,.01-.07,.04-.14,.08-.2,0,0,.02-.02,.03-.04,0,0,.01-.02,.02-.02,.01-.02,.06-.03,.08-.02l.09,.04s.08,.05,.11,.06c.03,.02,.07,.02,.11,.02,.12,0,.21-.08,.21-.21,0-.09,0-.18-.03-.28-.07-.23-.23-.4-.43-.48-.24-.11-.53-.12-.82-.03-.23,.07-.44,.23-.55,.43-.02,.02,0,.05-.02,.07v-2.01s1.95,0,1.95,0c.33,0,.57,.15,.79,.28,.06,.05,.13,.09,.19,.12,.02,.01,.12,.08,.15,.08,.03,0,.06-.02,.07-.03,.03-.03,.03-.07,.03-.08v-.15c.02-.86,0-2.35,0-2.93v-.02s-.05-.06-.07-.07c-.02,0-.05-.01-.1,.01,0,0-.2,.15-.23,.17-.21,.14-.45,.22-.73,.24-.15,.02-.3,.02-.45,.02h-1.23c-.05,0-.24,0-.29,0-.06,0-.06-.07-.06-.13v-1.16c0-.06,.02-.08,.08-.08h1.04c.26,0,.53,.07,.75,.21,.08,.05,.15,.08,.24,.13l.06,.03h.03s.1,0,.12-.06c.01-.04,.01-.14,.01-.16v-2.83c0-.08-.06-.1-.1-.09-.02,0-.08,.02-.08,.02-.08,.03-.16,.08-.24,.13-.2,.13-.44,.17-.68,.19-.23,.01-.46,.01-.69,.01,0,0-.35,0-.43,0s-.07-.03-.07-.1v-1.35Zm-2.15-.66s-.01-.04-.01-.07h1.74s-.01,.09-.02,.12c-.06,.21-.1,.46-.1,.83v1.55s0,.08,.04,.12c.04,.04,.1,.04,.2,.04h1.23c.14,.01,.3,0,.47-.03,.1-.01,.17-.03,.26-.06,.02,0,.03,0,.05,0,.01,0,.02,0,.03,0h0v1.66s-.02,0-.04,0c-.01,0-.03,0-.05-.01-.21-.06-.41-.09-.63-.09h-1.41c-.17,.02-.18,.05-.18,.24v2.01c0,.06,.05,.1,.1,.1h1.27l1.06-.02c.2,.01,.41-.01,.63-.08,.04-.01,.06-.02,.08-.03,.03-.01,.04,0,.04,.02,0,.03,0,.06,0,.09v1.55s-.01,.02-.02,.01c-.01,0-.03,0-.04-.01h-.02c-.2-.07-.42-.1-.65-.1h-2.16s-.07,0-.12,0c-.11,0-.17,.06-.17,.12,0,.05,0,.1,0,.17v1.77s-.03-.12-.07-.2c-.05-.1-.3-.34-.47-.45-.11-.1-.29-.09-.4,0-.17,.11-.3,.22-.46,.42-.03,.04-.11,.16-.1,.24v-1.97c0-.06-.07-.1-.11-.1h-2.19c-.14,0-.26,0-.4,.02-.14,0-.28,.02-.44,.08-.02,0-.04,.01-.04-.02v-1.63s.02,0,.03,0c.02,0,.03,0,.05,.01,.08,.03,.18,.04,.26,.06h.03c.07,.02,.17,.04,.27,.04h2.22s.07,0,.11,0c.03,0,.06,0,.09,0,.06,0,.12-.05,.12-.12v-2.1s-.04-.08-.07-.09c-.03-.02-.06-.02-.07-.02h-1.38c-.29,0-.56,.06-.76,.11h-.07v-1.66h.08c.2,.08,.41,.11,.61,.11h1.36c.06,0,.13,0,.21-.02,.03-.02,.09-.05,.09-.11v-1.62c.01-.26-.02-.54-.11-.83Zm-9.8,.17c0-.13,.11-.24,.24-.24h8.9s.03,.03,.05,.06,.02,.04,.03,.07c.07,.17,.1,.33,.1,.48,.01,.14,.01,.27,.01,.41v1.08c0,.08,0,.1-.07,.1h-.9c-.14,0-.26-.02-.39-.05-.19-.04-.37-.12-.54-.22-.04-.02-.07-.04-.1-.07-.03-.02-.07-.05-.1-.06-.03-.03-.07-.03-.08-.03-.05,0-.07,.02-.08,.05-.02,.03-.02,.07-.02,.08v2.95s0,.02,0,.03c.03,.08,.11,.07,.14,.05,0,0,.05-.02,.07-.03l.26-.14c.22-.12,.46-.17,.69-.17h1.1s.07,0,.07,.03c.01,.35,.01,1.13,0,1.31,0,.03-.02,.05-.05,.05h-1.97c-.23,0-.49-.08-.69-.21,0,0-.31-.18-.32-.18-.02,0-.03,0-.05-.01-.07,0-.1,.05-.1,.1v2.97c0,.05,.07,.08,.1,.08,.02,0,.06,0,.09-.02,.09-.04,.18-.09,.27-.15,.24-.13,.48-.19,.71-.19h2v2.11h0s-.02-.05-.03-.08c-.13-.29-.4-.49-.73-.54-.21-.03-.42-.01-.61,.05-.23,.07-.43,.27-.5,.49-.04,.12-.04,.25-.03,.31l.02,.06c.02,.06,.06,.08,.1,.1,.05,.02,.11,.03,.17,0,.01,0,.03-.01,.05-.02,.02,0,.04-.02,.05-.02,.03,0,.05-.02,.07-.03,.02-.01,.03-.02,.05-.03,.05-.01,.07,0,.09,.03,.04,.04,.07,.1,.1,.15,.04,.09,.09,.22,.1,.34,.01,.09,.03,.18,.03,.27v1h0c-1.14,.3-1.67,.77-2.18,1.17-.05,.04-.09,.08-.14,.12-.06,.06-.15,.08-.24,.05-1.48-.4-3.11,.13-4.01,1.14h-1.5c-.24,0-.26-.06-.26-.26v-14.54Zm0,15.54c0-.14,.02-.18,.15-.18h18.48c-.71,.72-1.91,1.88-2.12,2.06-.41,.35-.83,.69-1.27,.94-.1,.06-.21,.12-.32,.16l-.24-1.14c-.06-.35-.39-.58-.74-.52l-7.37,1.27h0c-.14,.02-.25,.14-.25,.28,0,.32-.21,.39-.38,.41-.05,0-.29,.07-.39-.25-.05-.15-.18-.25-.33-.2-.13,.04-.21,.16-.21,.29h0v.03s0,.02,0,.03l.95,5.49c.08,.46,.45,.79,.9,.79,.05,0,.11,0,.16-.01h.05l.08-.02,1.59-.29c.01,.13,.08,.22,.1,.23,.14,.12,.31,.18,.49,.18,.13,0,.28,0,.4-.05l.13-.04c.08-.02,.16-.01,.25,0l.07,.03c.19,.06,.37,.12,.55,.11l.23-.02c.08,0,.16,0,.23,.04,.19,.08,.39,.13,.58,.13,.15,0,.31-.01,.45-.04,.14-.03,.31-.04,.45-.03,.34,.02,.74,.07,1.08,.01,.16-.03,.32-.08,.48-.13l.48-.16c.08-.02,.14-.06,.22-.1,.26-.15,.49-.44,.67-.7l.08-.14c.44-.73,.84-1.45,1.28-2.18,.2-.31,.42-.59,.67-.85,.25-.25,.53-.49,.84-.68l2.7-1.92s.09-.06,.13-.08v4.92c0,3.33-2.69,5.81-4.5,6.67-2.84,1.34-3.82,1.77-5.96,2.71l-.09,.04c-.06,.03-.13,.03-.19,0l-.62-.27c-1.78-.78-2.85-1.25-5.45-2.48-1.81-.86-4.5-3.34-4.5-6.67v-7.67Z"/><path class="d" d="M100.59,37.87c-1.07,0-2.14,0-3.21-.04-.12-2.53-.08-5.82-.08-11.92v-.04c8.79,0,9.18,.32,9.74,1.7l.2-.12c-.16-.75-.2-1.23-.2-2.06s.04-1.35,.2-2.1l-.2-.04c-.44,1.39-.91,1.58-9.74,1.7,0-5.54-.04-8.08,.08-11.24,1.11-.12,2.18-.08,3.17-.08,4,0,7.13,.59,9.15,2.45l.2-.2c-.24-.55-.95-2.61-.95-3.09h-13.18c-.59,0-2.22,0-2.77-.2l-.04,.2c.79,.28,1.19,.83,1.23,1.66,.12,2.53,.08,5.19,.08,11.32s.04,8.71-.08,11.28c-.04,.67-.44,1.27-1.23,1.7l.04,.16c.59-.12,2.14-.16,2.77-.16h14.53c0-.36,1.23-2.69,1.43-3.09l-.2-.2c-2.49,1.86-6.57,2.38-10.93,2.38Z"/><path class="d" d="M125.3,37.87c-.75,0-1.54,0-2.34-.04-.12-2.53-.08-5.86-.08-12.04s-.04-8.79,.08-11.32c.04-.83,.44-1.39,1.23-1.66l-.04-.2c-.51,.2-2.18,.2-2.77,.2s-2.22,0-2.81-.2l-.04,.2c.79,.28,1.19,.83,1.23,1.66,.12,2.53,.08,5.19,.08,11.32s.04,8.71-.08,11.28c-.04,.67-.44,1.27-1.23,1.7l.04,.16c.59-.12,2.14-.16,2.77-.16h13.86c0-.4,1.19-2.69,1.39-3.09l-.2-.2c-2.69,2.02-6.61,2.41-11.09,2.38Z"/><path class="d" d="M149.64,38.78c-.83-.4-1.23-.95-1.27-1.7-.12-2.57-.08-5.07-.08-11.28V13.76c3.8-.04,6.97,.4,9.66,2.34l.2-.2c-.2-.51-.95-2.77-.95-3.09h-20.86c0,.32-.75,2.61-.95,3.13l.2,.16c2.69-1.86,5.94-2.38,9.7-2.34v12.04c0,6.22,.04,8.71-.08,11.28-.04,.79-.44,1.27-1.27,1.7l.04,.16c.55-.12,2.18-.16,2.81-.16s2.22,.04,2.77,.16l.08-.16Z"/><path class="d" d="M171.54,37.87c-1.07,0-2.14,0-3.21-.04-.12-2.53-.08-5.82-.08-11.92v-.04c8.79,0,9.18,.32,9.74,1.7l.2-.12c-.16-.75-.2-1.23-.2-2.06s.04-1.35,.2-2.1l-.2-.04c-.44,1.39-.91,1.58-9.74,1.7,0-5.54-.04-8.08,.08-11.24,1.11-.12,2.18-.08,3.17-.08,4,0,7.13,.59,9.15,2.45l.2-.2c-.24-.55-.95-2.61-.95-3.09h-13.18c-.59,0-2.22,0-2.77-.2l-.04,.2c.79,.28,1.19,.83,1.23,1.66,.12,2.53,.08,5.19,.08,11.32s.04,8.71-.08,11.28c-.04,.67-.44,1.27-1.23,1.7l.04,.16c.59-.12,2.14-.16,2.77-.16h14.53c0-.36,1.23-2.69,1.43-3.09l-.2-.2c-2.49,1.86-6.57,2.38-10.93,2.38Z"/><path class="d" d="M218.02,12.81l-.04-.2c-.51,.2-2.18,.2-2.77,.2s-2.22,0-2.81-.2l-.04,.2c.79,.28,1.19,.83,1.23,1.66,.12,2.53,.12,5.19,.12,11.32s0,8.71-.12,11.28c-.04,.75-.44,1.35-1.23,1.7l.04,.16c.63-.12,2.18-.16,2.81-.16s2.22,.04,2.77,.16l.04-.16c-.51-.28-1.19-.59-1.23-1.7-.12-2.57-.08-5.07-.08-11.28s-.04-8.79,.08-11.32c.04-.83,.44-1.39,1.23-1.66Z"/><path class="d" d="M254.08,38.94l.04-.16c-.75-.28-2.42-1.19-3.56-2.34-2.53-2.53-7.01-7.13-12.87-13.1,4.39-3.8,7.72-6.65,9.94-8.51,1.39-1.15,2.77-1.82,3.56-2.02l-.12-.2c-.75,.16-1.58,.2-2.38,.2s-1.78-.04-2.38-.2l-.08,.2c.59,.2,.44,.79-.79,1.94-2.49,2.34-6.18,5.82-12,11.05v-.2c0-6.02-.04-8.55,.08-11.12,.04-.83,.44-1.39,1.23-1.66l-.04-.2c-.51,.2-2.18,.2-2.77,.2s-2.22,0-2.81-.2l-.04,.2c.79,.28,1.19,.83,1.23,1.66,.12,2.53,.08,5.19,.08,11.32s.04,8.71-.08,11.28c-.04,.75-.44,1.35-1.23,1.7l.04,.16c.63-.12,2.18-.16,2.81-.16s2.22,.04,2.77,.16l.04-.16c-.79-.36-1.19-.95-1.23-1.7-.12-2.34-.08-4.79-.08-10.1l2.06-1.78c5.82,6.02,9.18,9.38,11.6,11.88,.75,.79,.71,1.27-.2,1.7l.04,.16c.63-.12,3.01-.16,3.84-.16,.75,0,2.45,.04,3.29,.16Z"/><path class="d" d="M195.42,41.97c.16,0,.29-.13,.29-.29V9.65c0-.16-.13-.29-.29-.29s-.29,.13-.29,.29V41.68c0,.16,.13,.29,.29,.29Z"/><path class="d" d="M95.83,52.14l-.02-.08c-.2,.08-.85,.08-1.09,.08s-.87,0-1.1-.08l-.02,.08c.31,.11,.47,.33,.48,.65,.05,.99,.05,2.03,.05,4.44s0,3.41-.05,4.42c-.02,.3-.17,.53-.48,.67l.02,.06c.25-.05,.85-.06,1.1-.06s.87,.02,1.09,.06l.02-.06c-.2-.11-.47-.23-.48-.67-.05-1.01-.03-1.99-.03-4.42s-.02-3.45,.03-4.44c.02-.33,.17-.54,.48-.65Z"/><path class="d" d="M109.07,52.14c-.25,0-.56-.02-.79-.08l-.02,.08c.33,.12,.43,.3,.48,.65,.08,.99,.12,2.03,.12,4.44,0,1.89,.02,2.55,.06,3.41-1.44-1.6-2.86-3.17-3.52-3.93-.67-.75-2.2-2.5-4-4.58h-.25c-.48,0-1.02-.02-1.4-.08l-.02,.08c.36,.14,.54,.39,.56,.75,.05,.99,.03,1.94,.03,4.35s-.02,3.41-.09,4.42c-.02,.3-.17,.53-.48,.67l.02,.06c.23-.05,.53-.06,.78-.06,.23,0,.57,.02,.78,.06l.02-.06c-.33-.17-.47-.36-.48-.67-.08-1.01-.12-2-.12-4.42s-.03-3.04-.03-4.07c2.05,2.34,3.43,3.88,3.91,4.42l4.42,5.04h.28c-.05-1.01-.03-2.96-.03-5.4s.03-3.45,.11-4.44c.05-.36,.15-.53,.47-.65l-.02-.08c-.23,.06-.54,.08-.78,.08Z"/><path class="d" d="M115.15,52.14c-.23,0-.87,0-1.09-.08l-.02,.08c.31,.11,.47,.33,.48,.65,.05,.99,.03,2.03,.03,4.44s.02,3.41-.03,4.42c-.02,.3-.17,.53-.48,.67l.02,.06c.25-.05,.96-.06,1.1-.06,.25,0,.87,.02,1.09,.06l.02-.06c-.31-.14-.47-.37-.48-.67-.05-.99-.03-1.99-.03-4.38v-.02c3.45,0,3.6,.12,3.82,.67l.08-.05c-.06-.29-.08-.48-.08-.81s.02-.53,.08-.82l-.08-.02c-.17,.54-.36,.62-3.82,.67,0-2.17-.02-3.17,.03-4.41,.43-.03,.85-.05,1.27-.05,1.41,0,2.67,.19,3.55,.98l.08-.08c-.09-.22-.37-1.02-.37-1.21h-5.17Z"/><path class="d" d="M128.38,51.83c-3.01,0-5.59,2.11-5.59,5.4s2.58,5.4,5.59,5.4,5.57-2.11,5.57-5.4-2.58-5.4-5.57-5.4Zm0,10.34c-2.31,0-4.28-1.88-4.28-4.94s1.97-4.94,4.28-4.94,4.25,1.88,4.25,4.94-1.96,4.94-4.25,4.94Z"/><path class="d" d="M144.38,62.17c-.64,0-1.23-1.04-1.83-2.14-.65-1.1-1.35-2.33-2.28-2.58,1.69-.25,3.1-1.12,3.1-2.79,0-1.4-1.23-2.58-4.05-2.58-.25,0-1.66,.02-2.17,.06v.06c.29,.02,.45,.2,.47,.59,.05,.99,.03,2.03,.03,4.44s.02,3.41-.03,4.42c-.02,.3-.17,.51-.5,.67l.03,.06c.23-.05,.87-.06,1.1-.06,.25,0,.87,.02,1.09,.06l.02-.06c-.29-.14-.45-.37-.47-.67-.05-.96-.05-1.97-.05-4.1,.17-.02,.28-.02,.45-.02,.14,0,.28,0,.42,.02,.75,.2,1.09,1.16,1.51,2.17,.5,1.32,1.06,2.73,2.37,2.73,.36,0,.7-.02,.99-.25l-.03-.08c-.08,.02-.14,.03-.17,.03Zm-5.06-5.08c-.17,0-.31,0-.48-.02,0-2.05,0-3.66,.05-4.59,2.03,0,3.21,.51,3.21,2.17s-1.09,2.44-2.78,2.44Z"/><path class="d" d="M158.54,52.14l-.02-.08c-.12,.05-.65,.08-.93,.08-.25,0-.7,0-.82-.05-.43,1.01-1.12,2.64-2.22,5.12-.9,2.02-1.02,2.34-1.52,3.38-.47-1.04-.45-1.01-1.57-3.37-1.12-2.44-1.89-4.13-2.33-5.14-.17,.05-.57,.05-.84,.05-.29,0-.68-.03-1.01-.08l-.02,.08c.31,.11,.47,.33,.48,.65,.05,.99,.03,2.03,.03,4.44s-.02,3.41-.09,4.42c-.02,.26-.17,.5-.48,.67l.02,.06c.23-.05,.54-.06,.78-.06,.25,0,.56,.02,.79,.06l.02-.06c-.31-.17-.47-.4-.48-.67-.08-1.01-.09-1.99-.09-4.42,0-2.17-.06-3.23-.06-4.21l.11,.2c.48,.93,.79,1.72,1.88,4,1.13,2.42,1.86,3.94,2.28,4.95h.37c.39-1.01,1.04-2.5,2.14-4.97,.96-2.13,1.43-3.21,1.88-4.16,.05,.95,0,1.99,0,4.18,0,2.44,.02,3.41-.03,4.42-.02,.26-.17,.5-.48,.67l.02,.06c.25-.05,.85-.06,1.1-.06s.87,.02,1.09,.06l.02-.06c-.31-.17-.47-.4-.48-.67-.05-1.01-.03-1.99-.03-4.42s-.02-3.45,.03-4.44c.02-.43,.28-.57,.48-.65Z"/><path class="d" d="M170.6,61.41c-.54-.99-.87-1.68-1.99-4.04-1.12-2.37-2.06-4.38-2.47-5.35h-.22c-.43,.99-1.34,2.98-2.47,5.35-1.12,2.34-1.51,3.15-2.05,4.14-.23,.48-.51,.7-.84,.81l.03,.06c.3-.05,.61-.06,.9-.06,.31,0,.64,.02,.88,.06l.02-.06c-.39-.17-.53-.4-.42-.67,.3-.73,.57-1.38,1.12-2.56h5.04c.57,1.18,.88,1.86,1.18,2.56,.11,.26-.02,.5-.4,.67l.02,.06c.25-.05,1.04-.06,1.34-.06,.33,0,.92,.02,1.23,.06l.02-.06c-.31-.11-.68-.47-.92-.92Zm-7.33-2.73c.17-.39,.37-.81,.61-1.3,.92-1.96,1.23-2.75,1.72-3.77,.5,1.02,.67,1.46,1.74,3.77,.23,.48,.43,.92,.61,1.3h-4.67Z"/><path class="d" d="M171.67,52.14c0,.12-.29,1.02-.37,1.23l.08,.06c1.06-.73,2.33-.93,3.8-.92v4.72c0,2.44,.02,3.41-.03,4.42-.02,.31-.17,.5-.5,.67l.02,.06c.22-.05,.85-.06,1.1-.06s.87,.02,1.09,.06l.03-.06c-.33-.16-.48-.37-.5-.67-.05-1.01-.03-1.99-.03-4.42v-4.72c1.49-.02,2.73,.16,3.79,.92l.08-.08c-.08-.2-.37-1.09-.37-1.21h-8.18Z"/><path class="d" d="M185.16,52.14l-.02-.08c-.2,.08-.85,.08-1.09,.08s-.87,0-1.1-.08l-.02,.08c.31,.11,.47,.33,.48,.65,.05,.99,.05,2.03,.05,4.44s0,3.41-.05,4.42c-.02,.3-.17,.53-.48,.67l.02,.06c.25-.05,.85-.06,1.1-.06s.87,.02,1.09,.06l.02-.06c-.2-.11-.47-.23-.48-.67-.05-1.01-.03-1.99-.03-4.42s-.02-3.45,.03-4.44c.02-.33,.17-.54,.48-.65Z"/><path class="d" d="M192.72,56.27c1.72-1.49,3.03-2.61,3.9-3.34,.54-.45,1.09-.71,1.4-.79l-.05-.08c-.3,.06-.62,.08-.93,.08s-.7-.02-.93-.08l-.03,.08c.23,.08,.17,.31-.31,.76-.98,.92-2.42,2.28-4.7,4.33v-.08c0-2.36-.02-3.35,.03-4.36,.02-.33,.17-.54,.48-.65l-.02-.08c-.2,.08-.85,.08-1.09,.08s-.87,0-1.1-.08l-.02,.08c.31,.11,.47,.33,.48,.65,.05,.99,.03,2.03,.03,4.44s.02,3.41-.03,4.42c-.02,.3-.17,.53-.48,.67l.02,.06c.25-.05,.85-.06,1.1-.06s.87,.02,1.09,.06l.02-.06c-.31-.14-.47-.37-.48-.67-.05-.92-.03-1.88-.03-3.96l.81-.7c2.28,2.36,3.6,3.68,4.55,4.66,.3,.31,.28,.5-.08,.67l.02,.06c.25-.05,1.18-.06,1.51-.06,.3,0,.96,.02,1.29,.06l.02-.06c-.29-.11-.95-.47-1.4-.92-.99-.99-2.75-2.79-5.04-5.14Z"/><path class="d" d="M209.28,61.41c-.54-.99-.87-1.68-1.99-4.04-1.12-2.37-2.06-4.38-2.47-5.35h-.22c-.43,.99-1.33,2.98-2.47,5.35-1.12,2.34-1.51,3.15-2.05,4.14-.23,.48-.51,.7-.84,.81l.03,.06c.29-.05,.61-.06,.9-.06,.31,0,.64,.02,.88,.06l.02-.06c-.39-.17-.53-.4-.42-.67,.29-.73,.57-1.38,1.12-2.56h5.04c.57,1.18,.88,1.86,1.18,2.56,.11,.26-.02,.5-.4,.67l.02,.06c.25-.05,1.04-.06,1.33-.06,.33,0,.92,.02,1.23,.06l.02-.06c-.31-.11-.68-.47-.92-.92Zm-7.33-2.73c.17-.39,.37-.81,.61-1.3,.92-1.96,1.23-2.75,1.72-3.77,.5,1.02,.67,1.46,1.74,3.77,.23,.48,.43,.92,.61,1.3h-4.67Z"/><path class="d" d="M214.45,52.14l-.02-.08c-.2,.08-.85,.08-1.09,.08s-.87,0-1.1-.08l-.02,.08c.31,.11,.47,.33,.48,.65,.05,.99,.05,2.03,.05,4.44s0,3.41-.05,4.42c-.02,.3-.17,.53-.48,.67l.02,.06c.25-.05,.85-.06,1.1-.06s.87,.02,1.09,.06l.02-.06c-.2-.11-.47-.23-.48-.67-.05-1.01-.03-1.99-.03-4.42s-.02-3.45,.03-4.44c.02-.33,.17-.54,.48-.65Z"/><path class="d" d="M227.42,56.27c1.72-1.49,3.03-2.61,3.9-3.34,.54-.45,1.09-.71,1.4-.79l-.05-.08c-.3,.06-.62,.08-.93,.08s-.7-.02-.93-.08l-.03,.08c.23,.08,.17,.31-.31,.76-.98,.92-2.42,2.28-4.7,4.33v-.08c0-2.36-.02-3.35,.03-4.36,.02-.33,.17-.54,.48-.65l-.02-.08c-.2,.08-.85,.08-1.09,.08s-.87,0-1.1-.08l-.02,.08c.31,.11,.47,.33,.48,.65,.05,.99,.03,2.03,.03,4.44s.02,3.41-.03,4.42c-.02,.3-.17,.53-.48,.67l.02,.06c.25-.05,.85-.06,1.1-.06s.87,.02,1.09,.06l.02-.06c-.31-.14-.47-.37-.48-.67-.05-.92-.03-1.88-.03-3.96l.81-.7c2.28,2.36,3.6,3.68,4.55,4.66,.3,.31,.28,.5-.08,.67l.02,.06c.25-.05,1.18-.06,1.51-.06,.3,0,.96,.02,1.29,.06l.02-.06c-.29-.11-.95-.47-1.4-.92-.99-.99-2.75-2.79-5.04-5.14Z"/><path class="d" d="M243.98,61.41c-.54-.99-.87-1.68-1.99-4.04-1.12-2.37-2.06-4.38-2.47-5.35h-.22c-.43,.99-1.34,2.98-2.47,5.35-1.12,2.34-1.51,3.15-2.05,4.14-.23,.48-.51,.7-.84,.81l.03,.06c.3-.05,.61-.06,.9-.06,.31,0,.64,.02,.88,.06l.02-.06c-.39-.17-.53-.4-.42-.67,.3-.73,.57-1.38,1.12-2.56h5.04c.57,1.18,.88,1.86,1.18,2.56,.11,.26-.02,.5-.4,.67l.02,.06c.25-.05,1.04-.06,1.34-.06,.33,0,.92,.02,1.23,.06l.02-.06c-.31-.11-.68-.47-.92-.92Zm-7.33-2.73c.17-.39,.37-.81,.61-1.3,.92-1.96,1.23-2.75,1.72-3.77,.5,1.02,.67,1.46,1.74,3.77,.23,.48,.43,.92,.61,1.3h-4.67Z"/><path class="d" d="M254.43,62.14c-.08,.02-.14,.03-.17,.03-.64,0-1.23-1.04-1.83-2.14-.65-1.1-1.35-2.33-2.28-2.58,1.69-.25,3.1-1.12,3.1-2.79,0-1.4-1.23-2.58-4.05-2.58-.25,0-1.66,.02-2.17,.06v.06c.3,.02,.45,.2,.47,.59,.05,.99,.03,2.03,.03,4.44s.02,3.41-.03,4.42c-.02,.3-.17,.51-.5,.67l.03,.06c.23-.05,.87-.06,1.1-.06,.25,0,.87,.02,1.09,.06l.02-.06c-.3-.14-.45-.37-.47-.67-.05-.96-.05-1.97-.05-4.1,.17-.02,.28-.02,.45-.02,.14,0,.28,0,.42,.02,.75,.2,1.09,1.16,1.51,2.17,.5,1.32,1.06,2.73,2.37,2.73,.36,0,.7-.02,.99-.25l-.03-.08Zm-5.23-5.04c-.17,0-.31,0-.48-.02,0-2.05,0-3.66,.05-4.59,2.03,0,3.21,.51,3.21,2.17s-1.09,2.44-2.78,2.44Z"/></g></g></g></svg>